<svg width="80" height="24" viewBox="0 0 80 24" fill="none" xmlns="http://www.w3.org/2000/svg">
<g id="Logo">
<g id="Group">
<g id="Group_2">
<path id="Vector" d="M25.2 5.94801C24.912 4.86801 24.06 4.01601 22.976 3.72401C21.016 3.20001 13.152 3.20001 13.152 3.20001C13.152 3.20001 5.29202 3.20001 3.32802 3.72401C2.24802 4.01201 1.39602 4.86401 1.10402 5.94801C0.580017 7.90801 0.580017 12 0.580017 12C0.580017 12 0.580017 16.092 1.10402 18.052C1.39202 19.132 2.24402 19.984 3.32802 20.276C5.29202 20.8 13.152 20.8 13.152 20.8C13.152 20.8 21.016 20.8 22.976 20.276C24.056 19.988 24.908 19.136 25.2 18.052C25.724 16.092 25.724 12 25.724 12C25.724 12 25.724 7.90801 25.2 5.94801Z" fill="#FF0000"/>
<path id="Vector_2" d="M10.64 15.772L17.172 12L10.64 8.22803V15.772Z" fill="white"/>
</g>
<g id="Group_3">
<g id="youtube paths">
<path id="Vector_3" d="M37.0761 19.212C36.5801 18.876 36.2241 18.356 36.0161 17.648C35.8081 16.94 35.7001 16 35.7001 14.824V13.224C35.7001 12.036 35.8201 11.084 36.0601 10.364C36.3001 9.64402 36.6761 9.12002 37.1841 8.79202C37.6921 8.46402 38.3601 8.29602 39.1881 8.29602C40.0041 8.29602 40.6561 8.46402 41.1481 8.80002C41.6401 9.13602 42.0001 9.66002 42.2281 10.372C42.4561 11.084 42.5681 12.036 42.5681 13.22V14.82C42.5681 15.996 42.4561 16.94 42.2361 17.652C42.0161 18.364 41.6561 18.888 41.1561 19.216C40.6601 19.544 39.9841 19.712 39.1321 19.712C38.2601 19.716 37.5721 19.548 37.0761 19.212ZM39.8641 17.484C40.0001 17.124 40.0721 16.536 40.0721 15.724V12.288C40.0721 11.496 40.0041 10.92 39.8641 10.552C39.7281 10.188 39.4841 10.004 39.1361 10.004C38.8001 10.004 38.5641 10.188 38.4241 10.552C38.2881 10.916 38.2161 11.496 38.2161 12.288V15.724C38.2161 16.54 38.2801 17.128 38.4121 17.484C38.5441 17.844 38.7841 18.024 39.1321 18.024C39.4841 18.024 39.7241 17.844 39.8641 17.484Z" fill="#282828"/>
<path id="Vector_4" d="M75.2641 14.852V15.408C75.2641 16.116 75.2841 16.644 75.3281 17C75.3681 17.352 75.4561 17.612 75.5881 17.772C75.7201 17.932 75.9241 18.016 76.2001 18.016C76.5721 18.016 76.8281 17.872 76.9641 17.584C77.1001 17.296 77.1761 16.816 77.1881 16.144L79.3281 16.268C79.3401 16.364 79.3441 16.496 79.3441 16.664C79.3441 17.684 79.0641 18.444 78.5081 18.948C77.9521 19.452 77.1641 19.704 76.1441 19.704C74.9201 19.704 74.0641 19.32 73.5721 18.552C73.0801 17.784 72.8361 16.6 72.8361 14.992V13.068C72.8361 11.412 73.0921 10.208 73.6001 9.44402C74.1081 8.68402 74.9801 8.30402 76.2161 8.30402C77.0681 8.30402 77.7201 8.46002 78.1761 8.77202C78.6321 9.08402 78.9521 9.56802 79.1401 10.228C79.3241 10.888 79.4201 11.8 79.4201 12.96V14.848H75.2641V14.852ZM75.5801 10.212C75.4561 10.368 75.3721 10.624 75.3281 10.976C75.2841 11.328 75.2641 11.868 75.2641 12.584V13.376H77.0801V12.584C77.0801 11.876 77.0561 11.34 77.0081 10.976C76.9601 10.612 76.8721 10.352 76.7481 10.204C76.6241 10.056 76.4281 9.98002 76.1641 9.98002C75.9001 9.97602 75.7041 10.056 75.5801 10.212Z" fill="#282828"/>
<path id="Vector_5" d="M31.036 14.644L28.212 4.44803H30.676L31.664 9.06803C31.916 10.208 32.1 11.176 32.22 11.98H32.292C32.376 11.404 32.56 10.44 32.848 9.08403L33.872 4.44403H36.336L33.48 14.644V19.536H31.036V14.644Z" fill="#282828"/>
<path id="Vector_6" d="M50.58 8.51202V19.532H48.64L48.424 18.184H48.372C47.844 19.204 47.052 19.712 46 19.712C45.268 19.712 44.728 19.472 44.38 18.992C44.032 18.512 43.86 17.764 43.86 16.744V8.51202H46.34V16.604C46.34 17.096 46.392 17.448 46.5 17.656C46.608 17.864 46.788 17.972 47.04 17.972C47.256 17.972 47.464 17.908 47.66 17.776C47.856 17.644 48.004 17.476 48.1 17.272V8.51202H50.58Z" fill="#282828"/>
<path id="Vector_7" d="M63.308 8.51202V19.532H61.368L61.152 18.184H61.1C60.572 19.204 59.78 19.712 58.728 19.712C57.996 19.712 57.456 19.472 57.108 18.992C56.76 18.512 56.588 17.764 56.588 16.744V8.51202H59.068V16.604C59.068 17.096 59.12 17.448 59.228 17.656C59.336 17.864 59.516 17.972 59.768 17.972C59.984 17.972 60.192 17.908 60.388 17.776C60.584 17.644 60.732 17.476 60.828 17.272V8.51202H63.308Z" fill="#282828"/>
<path id="Vector_8" d="M57.324 6.444H54.86V19.532H52.432V6.444H49.968V4.448H57.32V6.444H57.324Z" fill="#282828"/>
<path id="Vector_9" d="M71.52 10.276C71.368 9.58003 71.128 9.07603 70.792 8.76403C70.456 8.45203 69.996 8.29603 69.408 8.29603C68.952 8.29603 68.528 8.42403 68.132 8.68403C67.736 8.94003 67.432 9.28003 67.216 9.70003H67.196V3.89203H64.804V19.536H66.852L67.104 18.492H67.156C67.348 18.864 67.636 19.156 68.02 19.372C68.404 19.588 68.828 19.696 69.296 19.696C70.136 19.696 70.752 19.308 71.148 18.536C71.544 17.764 71.74 16.556 71.74 14.912V13.168C71.744 11.936 71.668 10.972 71.52 10.276ZM69.244 14.772C69.244 15.576 69.212 16.204 69.144 16.66C69.08 17.116 68.968 17.44 68.812 17.632C68.656 17.824 68.448 17.92 68.184 17.92C67.98 17.92 67.792 17.872 67.616 17.776C67.444 17.68 67.3 17.536 67.192 17.344V11.084C67.276 10.784 67.42 10.54 67.624 10.348C67.828 10.156 68.048 10.06 68.288 10.06C68.54 10.06 68.736 10.16 68.872 10.356C69.008 10.552 69.104 10.888 69.16 11.352C69.212 11.82 69.24 12.484 69.24 13.348V14.772H69.244Z" fill="#282828"/>
</g>
</g>
</g>
</g>
</svg>
